<?xml version="1.0" standalone="no"?>
<!DOCTYPE svg PUBLIC "-//W3C//DTD SVG 20010904//EN"
 "http://www.w3.org/TR/2001/REC-SVG-20010904/DTD/svg10.dtd">
<svg version="1.0" xmlns="http://www.w3.org/2000/svg"
 width="1280.000000pt" height="1280.000000pt" viewBox="0 0 1280.000000 1280.000000"
 preserveAspectRatio="xMidYMid meet">

<g transform="translate(0.000000,1280.000000) scale(0.100000,-0.100000)"
fill="#000000" stroke="none">
<path d="M5573 8114 c-7 -3 -15 -22 -19 -42 -21 -118 -108 -207 -239 -245 -42
-12 -107 -13 -415 -6 -614 13 -1140 11 -1253 -6 -462 -70 -923 -436 -1112
-884 -158 -374 -164 -719 -16 -948 115 -177 302 -293 576 -356 85 -19 135 -20
835 -27 657 -6 753 -9 812 -24 118 -30 188 -104 174 -182 -18 -94 -98 -199
-187 -244 l-41 -22 -1215 2 c-668 0 -1266 -2 -1330 -6 l-115 -7 -406 -434
c-224 -239 -411 -441 -415 -449 -7 -12 249 -14 1940 -11 l1948 3 70 21 c263
80 416 174 615 379 209 215 343 475 396 764 24 131 24 370 1 465 -31 121 -81
211 -166 296 -85 85 -166 134 -286 174 -167 56 -173 57 -1075 64 -634 6 -844
10 -874 20 -21 7 -57 30 -80 51 -40 38 -41 40 -41 107 0 112 57 194 176 252
142 69 86 65 1110 71 l926 5 331 300 c182 165 331 306 331 312 3 53 -256 331
-402 431 -101 70 -214 126 -307 152 -74 20 -223 35 -247 24z"/>
<path d="M7020 7816 c0 -2 -49 -188 -109 -413 -60 -224 -274 -1024 -476 -1778
-201 -753 -368 -1378 -371 -1387 -5 -17 30 -18 635 -18 601 0 640 1 645 18 3
9 98 364 211 787 113 424 208 778 211 788 4 13 16 17 48 17 l43 0 428 -805
428 -805 698 0 c656 0 698 1 703 18 15 49 236 880 236 886 0 3 -139 6 -309 6
l-309 0 -106 194 c-58 107 -106 196 -106 199 0 2 26 7 58 11 298 33 616 230
865 538 147 182 233 335 297 527 147 437 57 784 -269 1043 -84 68 -197 127
-291 154 -62 18 -136 19 -1612 22 -852 1 -1548 0 -1548 -2z m2413 -960 c63
-31 91 -77 95 -156 9 -149 -66 -292 -182 -352 -88 -45 -133 -48 -808 -48 -351
0 -638 3 -638 6 0 6 134 515 146 557 5 17 41 17 677 15 636 -3 674 -4 710 -22z"/>
</g>
</svg>
